<svg xmlns="http://www.w3.org/2000/svg" viewBox="0 0 606 712"><defs><style>.cls-1{fill:none;stroke:#000;stroke-miterlimit:10;stroke-width:15px;}</style></defs><title>Fichier 1</title><g id="Calque_2" data-name="Calque 2"><g id="Calque_1-2" data-name="Calque 1"><rect x="239" y="245" width="16" height="16"/><rect x="207" y="245" width="16" height="16"/><rect x="175" y="245" width="16" height="16"/><rect x="239" y="277" width="16" height="16"/><rect x="207" y="277" width="16" height="16"/><rect x="175" y="277" width="16" height="16"/><path d="M63,397a24,24,0,0,0,16,22.52V485a72.09,72.09,0,0,0,56,70.15V597a8,8,0,0,0,8,8h32a8,8,0,0,0,8-8V557H423v40a8,8,0,0,0,8,8h32a8,8,0,0,0,8-8V555.14A72.09,72.09,0,0,0,527,485V419.52A23.95,23.95,0,0,0,519,373H111V197h96v16H175v16h80V213H223V189a8,8,0,0,0-8-8H103a8,8,0,0,0-8,8V373H87A24,24,0,0,0,63,397Zm408,48H375V389h96Zm0,32H375V461h96Zm48-72H487V389h32a8,8,0,0,1,0,16ZM439,557h16v32H439Zm-288,0h16v32H151ZM95,421H359v64a8,8,0,0,0,8,8H479a8,8,0,0,0,8-8V421h24v64a56.07,56.07,0,0,1-56,56H151a56.07,56.07,0,0,1-56-56ZM79,397a8,8,0,0,1,8-8H359v16H87A8,8,0,0,1,79,397Z"/><rect class="cls-1" x="7.5" y="7.5" width="591" height="697" rx="12" ry="12"/><path d="M545.51,107.37H493.63V55.49c0-2.36-3.21-7.49-9.63-7.49s-9.63,5.13-9.63,7.49v51.88H422.49c-2.36,0-7.49,3.21-7.49,9.63s5.13,9.63,7.49,9.63h51.88v51.88c0,2.37,3.21,7.49,9.63,7.49s9.63-5.12,9.63-7.49V126.63h51.88c2.36,0,7.49-3.21,7.49-9.63S547.87,107.37,545.51,107.37Z"/></g></g></svg>